<svg xmlns="http://www.w3.org/2000/svg" xmlns:inkscape="http://www.inkscape.org/namespaces/inkscape" width="260" height="350" viewBox="0 0 260 350" role="img" aria-labelledby="title"><title id="title">The engineer: pointing</title><metadata>Original character vector artwork for Packets in Motion. User-directed character; native editable paths. No fonts, filters, gradients, external images or background rectangle. Lighting: upper left. Layer groups expose animation pivots in data-pivot attributes.</metadata><g id="engineer-pointing-shadow" data-part="shadow" inkscape:groupmode="layer" inkscape:label="shadow" ><ellipse cx="130" cy="329" rx="49" ry="5" fill="#27334d" opacity=".18"/></g><g id="engineer-pointing-figure" data-part="figure" inkscape:groupmode="layer" inkscape:label="figure" transform="translate(18 0) scale(.86 1)"><g id="engineer-pointing-leg-left" data-part="leg-left" inkscape:groupmode="layer" inkscape:label="leg-left" data-pivot="117 182"><path d="M117,182 L114,244 L111,303" fill="none" stroke="#3a5a8c" stroke-width="23" stroke-linecap="round" stroke-linejoin="round"/><path d="M123 182 L120 244 L117 302" fill="none" stroke="#2a446d" stroke-width="7" stroke-linecap="round" stroke-linejoin="round"/><path d="M111,303 L111 312" fill="none" stroke="#b98461" stroke-width="12" stroke-linecap="round" stroke-linejoin="round"/><path d="M102 308 Q111 313 120 308 L124 317 Q120 320 115 324 L99 324 Q96 319 102 308" fill="#1c2640" stroke="#56668c" stroke-width="1.5"/><path d="M100 323 L115 323" fill="none" stroke="#e7ecf5" stroke-width="2.2" stroke-linecap="round" stroke-linejoin="round"/></g><g id="engineer-pointing-leg-right" data-part="leg-right" inkscape:groupmode="layer" inkscape:label="leg-right" data-pivot="143 182"><path d="M143,182 L149,243 L153,303" fill="none" stroke="#3a5a8c" stroke-width="23" stroke-linecap="round" stroke-linejoin="round"/><path d="M149 182 L155 243 L159 302" fill="none" stroke="#2a446d" stroke-width="7" stroke-linecap="round" stroke-linejoin="round"/><path d="M153,303 L153 312" fill="none" stroke="#b98461" stroke-width="12" stroke-linecap="round" stroke-linejoin="round"/><path d="M144 308 Q153 313 162 308 L166 317 Q176 320 173 324 L141 324 Q138 319 144 308" fill="#1c2640" stroke="#56668c" stroke-width="1.5"/><path d="M142 323 L171 323" fill="none" stroke="#e7ecf5" stroke-width="2.2" stroke-linecap="round" stroke-linejoin="round"/></g><g id="engineer-pointing-arm-left" data-part="arm-left" inkscape:groupmode="layer" inkscape:label="arm-left" data-pivot="104 112"><path d="M104,112 L94,151 L94,188" fill="none" stroke="#34d399" stroke-width="20" stroke-linecap="round" stroke-linejoin="round"/><path d="M98 151 L98 188" fill="none" stroke="#209f78" stroke-width="5" stroke-linecap="round" stroke-linejoin="round"/><g transform="translate(94 188)"><path d="M-5 -5 L5 -5 L7 6 Q6 10 4 8 L3 3 L3 13 Q1 17 -1 12 L-2 5 L-3 13 Q-6 15 -6 10 L-7 3 Z" fill="#b98461" /><path d="M-2 0 L-1 6" fill="none" stroke="#945e43" stroke-width="1.3" stroke-linecap="round" stroke-linejoin="round"/></g></g><g id="engineer-pointing-torso" data-part="torso" inkscape:groupmode="layer" inkscape:label="torso" data-pivot="130 148"><path d="M102 106 Q109 97 120 98 L140 98 Q153 99 158 109 L160 179 Q130 193 99 180 L101 141 Z" fill="#34d399" /><path d="M148 102 L158 110 L160 179 L143 184 L146 142 Z" fill="#209f78" /><path d="M119 85 L140 85 L140 99 L130 110 L119 99 Z" fill="#b98461" /><path d="M120 88 Q130 97 140 90 L140 99 Q129 102 120 96 Z" fill="#945e43" /><path d="M116 100 L130 112 L145 99 L141 122 L130 128 L117 119 Z" fill="#131b2b" /><path d="M116 95 Q103 89 102 107 L119 124 L125 109 Z" fill="#209f78" /><path d="M145 95 Q159 92 159 106 L141 123 L135 109 Z" fill="#209f78" /><path d="M130 124 L130 184" fill="none" stroke="#209f78" stroke-width="1.7" stroke-linecap="round" stroke-linejoin="round"/><path d="M119 105 L130 135 L142 104" fill="none" stroke="#e7ecf5" stroke-width="3" stroke-linecap="round" stroke-linejoin="round"/><rect x="124" y="134" width="13" height="16" rx="2" fill="#e7ecf5"/><path d="M108 157 L119 153 M141 153 L152 157" fill="none" stroke="#209f78" stroke-width="1.8" stroke-linecap="round" stroke-linejoin="round"/></g><g id="engineer-pointing-head" data-part="head" inkscape:groupmode="layer" inkscape:label="head" data-pivot="130 91"><g id="engineer-pointing-face" data-part="face" inkscape:groupmode="layer" inkscape:label="face" ><path d="M108 43 C110 32 145 32 153 49 L155 69 Q151 91 135 94 Q117 92 110 77 Q101 70 108 43" fill="#b98461" /><path d="M145 48 Q155 75 137 89 Q128 94 119 87 Q134 101 147 85 Q157 73 153 48 Z" fill="#945e43" /><ellipse cx="105" cy="67" rx="4.4" ry="7" fill="#b98461" /><ellipse cx="155" cy="67" rx="4.4" ry="7" fill="#b98461" /><path d="M130 66 L128 72 Q131 74 134 71" fill="none" stroke="#945e43" stroke-width="1.6" stroke-linecap="round" stroke-linejoin="round"/></g><g id="engineer-pointing-eyes" data-part="eyes" inkscape:groupmode="layer" inkscape:label="eyes" ><g><path d="M117 62 Q122 56 127 62 Q122 67 117 62" fill="#e7ecf5" /><ellipse cx="122" cy="62" rx="2.8" ry="3.7" fill="#27334d" /><ellipse cx="123" cy="60.5" rx="0.8" ry="0.9" fill="#e7ecf5" /><path d="M117 62 Q122 56 127 62" fill="none" stroke="#27334d" stroke-width="1.3" stroke-linecap="round" stroke-linejoin="round"/></g><g><path d="M140 62 Q145 56 150 62 Q145 67 140 62" fill="#e7ecf5" /><ellipse cx="145" cy="62" rx="2.2" ry="3.7" fill="#27334d" /><ellipse cx="146" cy="60.5" rx="0.8" ry="0.9" fill="#e7ecf5" /><path d="M140 62 Q145 56 150 62" fill="none" stroke="#27334d" stroke-width="1.3" stroke-linecap="round" stroke-linejoin="round"/></g></g><g id="engineer-pointing-brows" data-part="brows" inkscape:groupmode="layer" inkscape:label="brows" ><path d="M112 53 Q118 50 124 53 M136 53 Q142 50 148 53" fill="none" stroke="#182037" stroke-width="2.2" stroke-linecap="round" stroke-linejoin="round"/></g><g id="engineer-pointing-mouth" data-part="mouth" inkscape:groupmode="layer" inkscape:label="mouth" ><g transform="translate(138 80)"><path d="M-7 -1 Q0 3 7 -1 Q4 7 0 7 Q-5 7 -7 -1" fill="#713c45" /><path d="M-5 0 Q0 3 5 0 L4 2 Q0 4 -4 2" fill="#e7ecf5" /></g></g><g id="engineer-pointing-hair-front" data-part="hair-front" inkscape:groupmode="layer" inkscape:label="hair-front" ><path d="M102 58 C95 52 99 37 108 31 L115 24 L114 31 C126 18 147 24 153 35 C165 37 164 53 155 61 L150 46 Q140 47 133 37 C125 47 113 44 108 59 Z" fill="#182037" /><path d="M108 38 Q122 25 132 29 M138 28 Q153 32 156 43" fill="none" stroke="#101729" stroke-width="2" stroke-linecap="round" stroke-linejoin="round"/></g><g id="engineer-pointing-glasses" data-part="glasses" inkscape:groupmode="layer" inkscape:label="glasses" ><circle cx="122" cy="62" r="8.3" fill="none" stroke="#27334d" stroke-width="2.3"/><circle cx="145" cy="62" r="8.3" fill="none" stroke="#27334d" stroke-width="2.3"/><path d="M130 61 Q134 58 137 61 M114 60 L108 60 M153 60 L157 59" fill="none" stroke="#27334d" stroke-width="2.2" stroke-linecap="round" stroke-linejoin="round"/></g></g><g id="engineer-pointing-arm-right" data-part="arm-right" inkscape:groupmode="layer" inkscape:label="arm-right" data-pivot="156 112"><path d="M156,112 L191,110 L225,101" fill="none" stroke="#34d399" stroke-width="20" stroke-linecap="round" stroke-linejoin="round"/><path d="M195 110 L229 101" fill="none" stroke="#209f78" stroke-width="5" stroke-linecap="round" stroke-linejoin="round"/><g transform="translate(225 101)"><path d="M-7 -5 L2 -6 L19 -10 Q23 -10 22 -7 L7 -3 L11 0 Q14 3 10 5 L3 8 L-7 5 Z" fill="#b98461" /><path d="M3 0 L8 3" fill="none" stroke="#945e43" stroke-width="1.4" stroke-linecap="round" stroke-linejoin="round"/></g></g></g></svg>
