<svg xmlns="http://www.w3.org/2000/svg" xmlns:inkscape="http://www.inkscape.org/namespaces/inkscape" width="260" height="350" viewBox="0 0 260 350" role="img" aria-labelledby="title"><title id="title">The engineer: celebrating</title><metadata>Original character vector artwork for Packets in Motion. User-directed character; native editable paths. No fonts, filters, gradients, external images or background rectangle. Lighting: upper left. Layer groups expose animation pivots in data-pivot attributes.</metadata><g id="engineer-celebrating-shadow" data-part="shadow" inkscape:groupmode="layer" inkscape:label="shadow" ><ellipse cx="130" cy="329" rx="49" ry="5" fill="#27334d" opacity=".18"/></g><g id="engineer-celebrating-figure" data-part="figure" inkscape:groupmode="layer" inkscape:label="figure" transform=""><g id="engineer-celebrating-leg-left" data-part="leg-left" inkscape:groupmode="layer" inkscape:label="leg-left" data-pivot="117 182"><path d="M117,182 L114,244 L111,303" fill="none" stroke="#3a5a8c" stroke-width="23" stroke-linecap="round" stroke-linejoin="round"/><path d="M123 182 L120 244 L117 302" fill="none" stroke="#2a446d" stroke-width="7" stroke-linecap="round" stroke-linejoin="round"/><path d="M111,303 L111 312" fill="none" stroke="#b98461" stroke-width="12" stroke-linecap="round" stroke-linejoin="round"/><path d="M102 308 Q111 313 120 308 L124 317 Q120 320 115 324 L99 324 Q96 319 102 308" fill="#1c2640" stroke="#56668c" stroke-width="1.5"/><path d="M100 323 L115 323" fill="none" stroke="#e7ecf5" stroke-width="2.2" stroke-linecap="round" stroke-linejoin="round"/></g><g id="engineer-celebrating-leg-right" data-part="leg-right" inkscape:groupmode="layer" inkscape:label="leg-right" data-pivot="143 182"><path d="M143,182 L149,243 L153,303" fill="none" stroke="#3a5a8c" stroke-width="23" stroke-linecap="round" stroke-linejoin="round"/><path d="M149 182 L155 243 L159 302" fill="none" stroke="#2a446d" stroke-width="7" stroke-linecap="round" stroke-linejoin="round"/><path d="M153,303 L153 312" fill="none" stroke="#b98461" stroke-width="12" stroke-linecap="round" stroke-linejoin="round"/><path d="M144 308 Q153 313 162 308 L166 317 Q176 320 173 324 L141 324 Q138 319 144 308" fill="#1c2640" stroke="#56668c" stroke-width="1.5"/><path d="M142 323 L171 323" fill="none" stroke="#e7ecf5" stroke-width="2.2" stroke-linecap="round" stroke-linejoin="round"/></g><g id="engineer-celebrating-torso" data-part="torso" inkscape:groupmode="layer" inkscape:label="torso" data-pivot="130 148"><path d="M102 106 Q109 97 120 98 L140 98 Q153 99 158 109 L160 179 Q130 193 99 180 L101 141 Z" fill="#34d399" /><path d="M148 102 L158 110 L160 179 L143 184 L146 142 Z" fill="#209f78" /><path d="M119 85 L140 85 L140 99 L130 110 L119 99 Z" fill="#b98461" /><path d="M120 88 Q130 97 140 90 L140 99 Q129 102 120 96 Z" fill="#945e43" /><path d="M116 100 L130 112 L145 99 L141 122 L130 128 L117 119 Z" fill="#131b2b" /><path d="M116 95 Q103 89 102 107 L119 124 L125 109 Z" fill="#209f78" /><path d="M145 95 Q159 92 159 106 L141 123 L135 109 Z" fill="#209f78" /><path d="M130 124 L130 184" fill="none" stroke="#209f78" stroke-width="1.7" stroke-linecap="round" stroke-linejoin="round"/><path d="M119 105 L130 135 L142 104" fill="none" stroke="#e7ecf5" stroke-width="3" stroke-linecap="round" stroke-linejoin="round"/><rect x="124" y="134" width="13" height="16" rx="2" fill="#e7ecf5"/><path d="M108 157 L119 153 M141 153 L152 157" fill="none" stroke="#209f78" stroke-width="1.8" stroke-linecap="round" stroke-linejoin="round"/></g><g id="engineer-celebrating-head" data-part="head" inkscape:groupmode="layer" inkscape:label="head" data-pivot="130 91"><g id="engineer-celebrating-face" data-part="face" inkscape:groupmode="layer" inkscape:label="face" ><path d="M107 45 C108 29 150 29 153 45 L153 69 C151 88 138 96 130 96 C119 94 107 84 107 69 Z" fill="#b98461" /><path d="M145 48 Q155 75 137 89 Q128 94 119 87 Q134 101 147 85 Q157 73 153 48 Z" fill="#945e43" /><ellipse cx="105" cy="67" rx="4.4" ry="7" fill="#b98461" /><ellipse cx="155" cy="67" rx="4.4" ry="7" fill="#b98461" /><path d="M130 66 L128 72 Q131 74 134 71" fill="none" stroke="#945e43" stroke-width="1.6" stroke-linecap="round" stroke-linejoin="round"/></g><g id="engineer-celebrating-eyes" data-part="eyes" inkscape:groupmode="layer" inkscape:label="eyes" ><path d="M113 63 Q118 58 123 63" fill="none" stroke="#27334d" stroke-width="2" stroke-linecap="round" stroke-linejoin="round"/><path d="M137 63 Q142 58 147 63" fill="none" stroke="#27334d" stroke-width="2" stroke-linecap="round" stroke-linejoin="round"/></g><g id="engineer-celebrating-brows" data-part="brows" inkscape:groupmode="layer" inkscape:label="brows" ><path d="M112 53 Q118 50 124 53 M136 53 Q142 50 148 53" fill="none" stroke="#182037" stroke-width="2.2" stroke-linecap="round" stroke-linejoin="round"/></g><g id="engineer-celebrating-mouth" data-part="mouth" inkscape:groupmode="layer" inkscape:label="mouth" ><g transform="translate(130 80)"><path d="M-8 -1 Q0 2 8 -1 Q6 10 0 10 Q-6 10 -8 -1" fill="#713c45" /><path d="M-6 0 Q0 2 6 0 L5 3 Q0 5 -5 3" fill="#e7ecf5" /><path d="M-4 7 Q0 4 4 7 Q0 11 -4 7" fill="#945e43" /></g></g><g id="engineer-celebrating-hair-front" data-part="hair-front" inkscape:groupmode="layer" inkscape:label="hair-front" ><path d="M102 58 C95 52 99 37 108 31 L115 24 L114 31 C126 18 147 24 153 35 C165 37 164 53 155 61 L150 46 Q140 47 133 37 C125 47 113 44 108 59 Z" fill="#182037" /><path d="M108 38 Q122 25 132 29 M138 28 Q153 32 156 43" fill="none" stroke="#101729" stroke-width="2" stroke-linecap="round" stroke-linejoin="round"/></g><g id="engineer-celebrating-glasses" data-part="glasses" inkscape:groupmode="layer" inkscape:label="glasses" ><circle cx="118" cy="62" r="8.3" fill="none" stroke="#27334d" stroke-width="2.3"/><circle cx="142" cy="62" r="8.3" fill="none" stroke="#27334d" stroke-width="2.3"/><path d="M126 61 Q130 58 134 61 M110 60 L105 59 M150 60 L155 59" fill="none" stroke="#27334d" stroke-width="2.2" stroke-linecap="round" stroke-linejoin="round"/></g></g><g id="engineer-celebrating-arm-left" data-part="arm-left" inkscape:groupmode="layer" inkscape:label="arm-left" data-pivot="104 112"><path d="M104,112 L84,80 L65,48" fill="none" stroke="#34d399" stroke-width="20" stroke-linecap="round" stroke-linejoin="round"/><path d="M88 80 L69 48" fill="none" stroke="#209f78" stroke-width="5" stroke-linecap="round" stroke-linejoin="round"/><g transform="translate(65 48)"><path d="M-5 4 L-8 -5 Q-9 -9 -6 -8 L-3 -3 L-5 -17 Q-5 -21 -2 -19 L1 -8 L1 -23 Q2 -26 4 -23 L5 -8 L8 -20 Q10 -23 12 -20 L10 -5 L14 -13 Q17 -15 17 -11 L12 4 Q7 11 -1 10 Z" fill="#b98461" /><path d="M-1 2 Q5 -2 10 2" fill="none" stroke="#945e43" stroke-width="1.4" stroke-linecap="round" stroke-linejoin="round"/></g></g><g id="engineer-celebrating-arm-right" data-part="arm-right" inkscape:groupmode="layer" inkscape:label="arm-right" data-pivot="156 112"><path d="M156,112 L176,80 L195,48" fill="none" stroke="#34d399" stroke-width="20" stroke-linecap="round" stroke-linejoin="round"/><path d="M180 80 L199 48" fill="none" stroke="#209f78" stroke-width="5" stroke-linecap="round" stroke-linejoin="round"/><g transform="translate(195 48) scale(-1 1)"><path d="M-5 4 L-8 -5 Q-9 -9 -6 -8 L-3 -3 L-5 -17 Q-5 -21 -2 -19 L1 -8 L1 -23 Q2 -26 4 -23 L5 -8 L8 -20 Q10 -23 12 -20 L10 -5 L14 -13 Q17 -15 17 -11 L12 4 Q7 11 -1 10 Z" fill="#b98461" /><path d="M-1 2 Q5 -2 10 2" fill="none" stroke="#945e43" stroke-width="1.4" stroke-linecap="round" stroke-linejoin="round"/></g></g></g></svg>
