<svg xmlns="http://www.w3.org/2000/svg" xmlns:inkscape="http://www.inkscape.org/namespaces/inkscape" width="600" height="400" viewBox="0 0 600 400" role="img" aria-labelledby="postcard-viral-night-title"><title id="postcard-viral-night-title">The viral night: phones lighting up across a night city</title><g id="postcard-viral-night" data-part="postcard-viral-night" inkscape:groupmode="layer" inkscape:label="postcard-viral-night" ><g id="ground-shadow" data-part="ground-shadow" inkscape:groupmode="layer" inkscape:label="ground-shadow" ><ellipse cx="300" cy="350" rx="249" ry="9" fill="#27334d" opacity=".3"/></g><g id="night-city" data-part="night-city" inkscape:groupmode="layer" inkscape:label="night-city" ><rect x="54" y="180" width="59" height="150" rx="4" fill="#131b2b" /><rect x="67" y="197" width="8" height="10" rx="1" fill="#27334d" /><rect x="91" y="197" width="8" height="10" rx="1" fill="#27334d" /><rect x="67" y="227" width="8" height="10" rx="1" fill="#27334d" /><rect x="91" y="227" width="8" height="10" rx="1" fill="#27334d" /><rect x="67" y="257" width="8" height="10" rx="1" fill="#27334d" /><rect x="91" y="257" width="8" height="10" rx="1" fill="#27334d" /><rect x="67" y="287" width="8" height="10" rx="1" fill="#27334d" /><rect x="91" y="287" width="8" height="10" rx="1" fill="#27334d" /><rect x="118" y="130" width="57" height="200" rx="4" fill="#131b2b" /><rect x="131" y="147" width="8" height="10" rx="1" fill="#27334d" /><rect x="153" y="147" width="8" height="10" rx="1" fill="#27334d" /><rect x="131" y="177" width="8" height="10" rx="1" fill="#27334d" /><rect x="153" y="177" width="8" height="10" rx="1" fill="#27334d" /><rect x="131" y="207" width="8" height="10" rx="1" fill="#27334d" /><rect x="153" y="207" width="8" height="10" rx="1" fill="#27334d" /><rect x="131" y="237" width="8" height="10" rx="1" fill="#27334d" /><rect x="153" y="237" width="8" height="10" rx="1" fill="#27334d" /><rect x="179" y="168" width="56" height="162" rx="4" fill="#131b2b" /><rect x="192" y="185" width="8" height="10" rx="1" fill="#27334d" /><rect x="213" y="185" width="8" height="10" rx="1" fill="#27334d" /><rect x="192" y="215" width="8" height="10" rx="1" fill="#27334d" /><rect x="213" y="215" width="8" height="10" rx="1" fill="#27334d" /><rect x="192" y="245" width="8" height="10" rx="1" fill="#27334d" /><rect x="213" y="245" width="8" height="10" rx="1" fill="#27334d" /><rect x="192" y="275" width="8" height="10" rx="1" fill="#27334d" /><rect x="213" y="275" width="8" height="10" rx="1" fill="#27334d" /><rect x="363" y="158" width="54" height="172" rx="4" fill="#131b2b" /><rect x="376" y="175" width="8" height="10" rx="1" fill="#27334d" /><rect x="395" y="175" width="8" height="10" rx="1" fill="#27334d" /><rect x="376" y="205" width="8" height="10" rx="1" fill="#27334d" /><rect x="395" y="205" width="8" height="10" rx="1" fill="#27334d" /><rect x="376" y="235" width="8" height="10" rx="1" fill="#27334d" /><rect x="395" y="235" width="8" height="10" rx="1" fill="#27334d" /><rect x="376" y="265" width="8" height="10" rx="1" fill="#27334d" /><rect x="395" y="265" width="8" height="10" rx="1" fill="#27334d" /><rect x="421" y="116" width="65" height="214" rx="4" fill="#131b2b" /><rect x="434" y="133" width="8" height="10" rx="1" fill="#27334d" /><rect x="464" y="133" width="8" height="10" rx="1" fill="#27334d" /><rect x="434" y="163" width="8" height="10" rx="1" fill="#27334d" /><rect x="464" y="163" width="8" height="10" rx="1" fill="#27334d" /><rect x="434" y="193" width="8" height="10" rx="1" fill="#27334d" /><rect x="464" y="193" width="8" height="10" rx="1" fill="#27334d" /><rect x="434" y="223" width="8" height="10" rx="1" fill="#27334d" /><rect x="464" y="223" width="8" height="10" rx="1" fill="#27334d" /><rect x="491" y="174" width="55" height="156" rx="4" fill="#131b2b" /><rect x="504" y="191" width="8" height="10" rx="1" fill="#27334d" /><rect x="524" y="191" width="8" height="10" rx="1" fill="#27334d" /><rect x="504" y="221" width="8" height="10" rx="1" fill="#27334d" /><rect x="524" y="221" width="8" height="10" rx="1" fill="#27334d" /><rect x="504" y="251" width="8" height="10" rx="1" fill="#27334d" /><rect x="524" y="251" width="8" height="10" rx="1" fill="#27334d" /><rect x="504" y="281" width="8" height="10" rx="1" fill="#27334d" /><rect x="524" y="281" width="8" height="10" rx="1" fill="#27334d" /></g><g id="notification-links" data-part="notification-links" inkscape:groupmode="layer" inkscape:label="notification-links" ><path d="M137 158 Q230 21 296 131 M300 131 Q404 14 465 144 M153 177 Q307 291 459 164" fill="none" stroke="#4ea1ff" stroke-width="2" stroke-linecap="round" stroke-linejoin="round" stroke-dasharray="3 9"/></g><g id="lit-phone-0" data-part="lit-phone-0" inkscape:groupmode="layer" inkscape:label="lit-phone-0" ><ellipse cx="130" cy="134.8" rx="47.6" ry="77.35" fill="#4ea1ff" opacity=".06"/><g transform="translate(96 77) scale(0.85)"><g id="viral-phone-0" data-part="viral-phone-0" inkscape:groupmode="layer" inkscape:label="viral-phone-0" ><g id="viral-phone-0-case" data-part="viral-phone-0-case" inkscape:groupmode="layer" inkscape:label="viral-phone-0-case" ><rect x="0" y="0" width="80" height="139" rx="12" fill="#27334d" /><rect x="4" y="4" width="72" height="131" rx="9" fill="#04060d" /><path d="M15 5 H65" fill="none" stroke="#8f9ab0" stroke-width="1.5" stroke-linecap="round" stroke-linejoin="round" /></g><g id="viral-phone-0-screen" data-part="viral-phone-0-screen" inkscape:groupmode="layer" inkscape:label="viral-phone-0-screen" ><rect x="9" y="17" width="62" height="105" rx="4" fill="#27334d" /><rect x="17" y="28" width="46" height="31" rx="4" fill="#4ea1ff" /><rect x="17" y="68" width="32" height="5" rx="2" fill="#e7ecf5" /><rect x="17" y="79" width="43" height="4" rx="2" fill="#8f9ab0" /><rect x="17" y="92" width="21" height="9" rx="3" fill="#34d399" /></g><g id="viral-phone-0-speaker" data-part="viral-phone-0-speaker" inkscape:groupmode="layer" inkscape:label="viral-phone-0-speaker" ><path d="M31 10 H49" fill="none" stroke="#8f9ab0" stroke-width="2" stroke-linecap="round" stroke-linejoin="round" /></g><g id="viral-phone-0-home" data-part="viral-phone-0-home" inkscape:groupmode="layer" inkscape:label="viral-phone-0-home" ><path d="M29 128 H51" fill="none" stroke="#8f9ab0" stroke-width="2" stroke-linecap="round" stroke-linejoin="round" /></g></g></g><g id="notification-0" data-part="notification-0" inkscape:groupmode="layer" inkscape:label="notification-0" data-pivot="153.8 92.3"><ellipse cx="153.8" cy="92.3" rx="16" ry="16" fill="#4ea1ff" opacity=".08"/><ellipse cx="153.8" cy="92.3" rx="10" ry="10" fill="#4ea1ff" opacity=".18"/><ellipse cx="153.8" cy="92.3" rx="5" ry="5" fill="#4ea1ff" /><ellipse cx="152.60000000000002" cy="91.1" rx="1.7" ry="1.7" fill="#e7ecf5" /></g></g><g id="lit-phone-1" data-part="lit-phone-1" inkscape:groupmode="layer" inkscape:label="lit-phone-1" ><ellipse cx="298.8" cy="122.56" rx="65.52" ry="106.47" fill="#4ea1ff" opacity=".06"/><g transform="translate(252 43) scale(1.17)"><g id="viral-phone-1" data-part="viral-phone-1" inkscape:groupmode="layer" inkscape:label="viral-phone-1" ><g id="viral-phone-1-case" data-part="viral-phone-1-case" inkscape:groupmode="layer" inkscape:label="viral-phone-1-case" ><rect x="0" y="0" width="80" height="139" rx="12" fill="#27334d" /><rect x="4" y="4" width="72" height="131" rx="9" fill="#04060d" /><path d="M15 5 H65" fill="none" stroke="#8f9ab0" stroke-width="1.5" stroke-linecap="round" stroke-linejoin="round" /></g><g id="viral-phone-1-screen" data-part="viral-phone-1-screen" inkscape:groupmode="layer" inkscape:label="viral-phone-1-screen" ><rect x="9" y="17" width="62" height="105" rx="4" fill="#27334d" /><rect x="17" y="28" width="46" height="31" rx="4" fill="#4ea1ff" /><rect x="17" y="68" width="32" height="5" rx="2" fill="#e7ecf5" /><rect x="17" y="79" width="43" height="4" rx="2" fill="#8f9ab0" /><rect x="17" y="92" width="21" height="9" rx="3" fill="#34d399" /></g><g id="viral-phone-1-speaker" data-part="viral-phone-1-speaker" inkscape:groupmode="layer" inkscape:label="viral-phone-1-speaker" ><path d="M31 10 H49" fill="none" stroke="#8f9ab0" stroke-width="2" stroke-linecap="round" stroke-linejoin="round" /></g><g id="viral-phone-1-home" data-part="viral-phone-1-home" inkscape:groupmode="layer" inkscape:label="viral-phone-1-home" ><path d="M29 128 H51" fill="none" stroke="#8f9ab0" stroke-width="2" stroke-linecap="round" stroke-linejoin="round" /></g></g></g><g id="notification-1" data-part="notification-1" inkscape:groupmode="layer" inkscape:label="notification-1" data-pivot="331.56 64.06"><ellipse cx="331.56" cy="64.06" rx="16" ry="16" fill="#fbbf24" opacity=".08"/><ellipse cx="331.56" cy="64.06" rx="10" ry="10" fill="#fbbf24" opacity=".18"/><ellipse cx="331.56" cy="64.06" rx="5" ry="5" fill="#fbbf24" /><ellipse cx="330.36" cy="62.86" rx="1.7" ry="1.7" fill="#e7ecf5" /></g></g><g id="lit-phone-2" data-part="lit-phone-2" inkscape:groupmode="layer" inkscape:label="lit-phone-2" ><ellipse cx="462.4" cy="124.47999999999999" rx="48.16" ry="78.26" fill="#4ea1ff" opacity=".06"/><g transform="translate(428 66) scale(0.86)"><g id="viral-phone-2" data-part="viral-phone-2" inkscape:groupmode="layer" inkscape:label="viral-phone-2" ><g id="viral-phone-2-case" data-part="viral-phone-2-case" inkscape:groupmode="layer" inkscape:label="viral-phone-2-case" ><rect x="0" y="0" width="80" height="139" rx="12" fill="#27334d" /><rect x="4" y="4" width="72" height="131" rx="9" fill="#04060d" /><path d="M15 5 H65" fill="none" stroke="#8f9ab0" stroke-width="1.5" stroke-linecap="round" stroke-linejoin="round" /></g><g id="viral-phone-2-screen" data-part="viral-phone-2-screen" inkscape:groupmode="layer" inkscape:label="viral-phone-2-screen" ><rect x="9" y="17" width="62" height="105" rx="4" fill="#27334d" /><rect x="17" y="28" width="46" height="31" rx="4" fill="#4ea1ff" /><rect x="17" y="68" width="32" height="5" rx="2" fill="#e7ecf5" /><rect x="17" y="79" width="43" height="4" rx="2" fill="#8f9ab0" /><rect x="17" y="92" width="21" height="9" rx="3" fill="#34d399" /></g><g id="viral-phone-2-speaker" data-part="viral-phone-2-speaker" inkscape:groupmode="layer" inkscape:label="viral-phone-2-speaker" ><path d="M31 10 H49" fill="none" stroke="#8f9ab0" stroke-width="2" stroke-linecap="round" stroke-linejoin="round" /></g><g id="viral-phone-2-home" data-part="viral-phone-2-home" inkscape:groupmode="layer" inkscape:label="viral-phone-2-home" ><path d="M29 128 H51" fill="none" stroke="#8f9ab0" stroke-width="2" stroke-linecap="round" stroke-linejoin="round" /></g></g></g><g id="notification-2" data-part="notification-2" inkscape:groupmode="layer" inkscape:label="notification-2" data-pivot="486.48 81.48"><ellipse cx="486.48" cy="81.48" rx="16" ry="16" fill="#4ea1ff" opacity=".08"/><ellipse cx="486.48" cy="81.48" rx="10" ry="10" fill="#4ea1ff" opacity=".18"/><ellipse cx="486.48" cy="81.48" rx="5" ry="5" fill="#4ea1ff" /><ellipse cx="485.28000000000003" cy="80.28" rx="1.7" ry="1.7" fill="#e7ecf5" /></g></g><g id="lit-phone-3" data-part="lit-phone-3" inkscape:groupmode="layer" inkscape:label="lit-phone-3" ><ellipse cx="198.4" cy="243.08" rx="31.360000000000003" ry="50.96000000000001" fill="#4ea1ff" opacity=".06"/><g transform="translate(176 205) scale(0.56)"><g id="viral-phone-3" data-part="viral-phone-3" inkscape:groupmode="layer" inkscape:label="viral-phone-3" ><g id="viral-phone-3-case" data-part="viral-phone-3-case" inkscape:groupmode="layer" inkscape:label="viral-phone-3-case" ><rect x="0" y="0" width="80" height="139" rx="12" fill="#27334d" /><rect x="4" y="4" width="72" height="131" rx="9" fill="#04060d" /><path d="M15 5 H65" fill="none" stroke="#8f9ab0" stroke-width="1.5" stroke-linecap="round" stroke-linejoin="round" /></g><g id="viral-phone-3-screen" data-part="viral-phone-3-screen" inkscape:groupmode="layer" inkscape:label="viral-phone-3-screen" ><rect x="9" y="17" width="62" height="105" rx="4" fill="#27334d" /><rect x="17" y="28" width="46" height="31" rx="4" fill="#4ea1ff" /><rect x="17" y="68" width="32" height="5" rx="2" fill="#e7ecf5" /><rect x="17" y="79" width="43" height="4" rx="2" fill="#8f9ab0" /><rect x="17" y="92" width="21" height="9" rx="3" fill="#34d399" /></g><g id="viral-phone-3-speaker" data-part="viral-phone-3-speaker" inkscape:groupmode="layer" inkscape:label="viral-phone-3-speaker" ><path d="M31 10 H49" fill="none" stroke="#8f9ab0" stroke-width="2" stroke-linecap="round" stroke-linejoin="round" /></g><g id="viral-phone-3-home" data-part="viral-phone-3-home" inkscape:groupmode="layer" inkscape:label="viral-phone-3-home" ><path d="M29 128 H51" fill="none" stroke="#8f9ab0" stroke-width="2" stroke-linecap="round" stroke-linejoin="round" /></g></g></g><g id="notification-3" data-part="notification-3" inkscape:groupmode="layer" inkscape:label="notification-3" data-pivot="214.08 215.08"><ellipse cx="214.08" cy="215.08" rx="16" ry="16" fill="#fbbf24" opacity=".08"/><ellipse cx="214.08" cy="215.08" rx="10" ry="10" fill="#fbbf24" opacity=".18"/><ellipse cx="214.08" cy="215.08" rx="5" ry="5" fill="#fbbf24" /><ellipse cx="212.88000000000002" cy="213.88000000000002" rx="1.7" ry="1.7" fill="#e7ecf5" /></g></g><g id="lit-phone-4" data-part="lit-phone-4" inkscape:groupmode="layer" inkscape:label="lit-phone-4" ><ellipse cx="375.4" cy="262.68" rx="28.560000000000002" ry="46.410000000000004" fill="#4ea1ff" opacity=".06"/><g transform="translate(355 228) scale(0.51)"><g id="viral-phone-4" data-part="viral-phone-4" inkscape:groupmode="layer" inkscape:label="viral-phone-4" ><g id="viral-phone-4-case" data-part="viral-phone-4-case" inkscape:groupmode="layer" inkscape:label="viral-phone-4-case" ><rect x="0" y="0" width="80" height="139" rx="12" fill="#27334d" /><rect x="4" y="4" width="72" height="131" rx="9" fill="#04060d" /><path d="M15 5 H65" fill="none" stroke="#8f9ab0" stroke-width="1.5" stroke-linecap="round" stroke-linejoin="round" /></g><g id="viral-phone-4-screen" data-part="viral-phone-4-screen" inkscape:groupmode="layer" inkscape:label="viral-phone-4-screen" ><rect x="9" y="17" width="62" height="105" rx="4" fill="#27334d" /><rect x="17" y="28" width="46" height="31" rx="4" fill="#4ea1ff" /><rect x="17" y="68" width="32" height="5" rx="2" fill="#e7ecf5" /><rect x="17" y="79" width="43" height="4" rx="2" fill="#8f9ab0" /><rect x="17" y="92" width="21" height="9" rx="3" fill="#34d399" /></g><g id="viral-phone-4-speaker" data-part="viral-phone-4-speaker" inkscape:groupmode="layer" inkscape:label="viral-phone-4-speaker" ><path d="M31 10 H49" fill="none" stroke="#8f9ab0" stroke-width="2" stroke-linecap="round" stroke-linejoin="round" /></g><g id="viral-phone-4-home" data-part="viral-phone-4-home" inkscape:groupmode="layer" inkscape:label="viral-phone-4-home" ><path d="M29 128 H51" fill="none" stroke="#8f9ab0" stroke-width="2" stroke-linecap="round" stroke-linejoin="round" /></g></g></g><g id="notification-4" data-part="notification-4" inkscape:groupmode="layer" inkscape:label="notification-4" data-pivot="389.68 237.18"><ellipse cx="389.68" cy="237.18" rx="16" ry="16" fill="#4ea1ff" opacity=".08"/><ellipse cx="389.68" cy="237.18" rx="10" ry="10" fill="#4ea1ff" opacity=".18"/><ellipse cx="389.68" cy="237.18" rx="5" ry="5" fill="#4ea1ff" /><ellipse cx="388.48" cy="235.98000000000002" rx="1.7" ry="1.7" fill="#e7ecf5" /></g></g><g transform="translate(75 257) scale(1)"><g id="night-reader-left" data-part="night-reader-left" inkscape:groupmode="layer" inkscape:label="night-reader-left" ><g id="night-reader-left-shadow" data-part="night-reader-left-shadow" inkscape:groupmode="layer" inkscape:label="night-reader-left-shadow" ><ellipse cx="9" cy="91" rx="23" ry="4" fill="#8f9ab0" opacity=".12"/></g><g id="night-reader-left-leg-left" data-part="night-reader-left-leg-left" inkscape:groupmode="layer" inkscape:label="night-reader-left-leg-left" ><path d="M4 51 L0 82 L-7 86" fill="none" stroke="#8f9ab0" stroke-width="7" stroke-linecap="round" stroke-linejoin="round" /></g><g id="night-reader-left-leg-right" data-part="night-reader-left-leg-right" inkscape:groupmode="layer" inkscape:label="night-reader-left-leg-right" ><path d="M14 51 L21 82 L28 86" fill="none" stroke="#27334d" stroke-width="7" stroke-linecap="round" stroke-linejoin="round" /></g><g id="night-reader-left-torso" data-part="night-reader-left-torso" inkscape:groupmode="layer" inkscape:label="night-reader-left-torso" ><path d="M0 20 Q9 16 18 23 L20 54 H-3 Z" fill="#a78bfa" /></g><g id="night-reader-left-arm-left" data-part="night-reader-left-arm-left" inkscape:groupmode="layer" inkscape:label="night-reader-left-arm-left" ><path d="M1 28 L-11 45 L-4 51" fill="none" stroke="#a78bfa" stroke-width="7" stroke-linecap="round" stroke-linejoin="round" /></g><g id="night-reader-left-arm-right" data-part="night-reader-left-arm-right" inkscape:groupmode="layer" inkscape:label="night-reader-left-arm-right" ><path d="M13 30 L24 38 L29 26" fill="none" stroke="#a78bfa" stroke-width="7" stroke-linecap="round" stroke-linejoin="round" /><rect x="26" y="18" width="9" height="15" rx="2" fill="#131b2b" /><rect x="28" y="21" width="5" height="8" rx="1" fill="#4ea1ff" /></g><g id="night-reader-left-head" data-part="night-reader-left-head" inkscape:groupmode="layer" inkscape:label="night-reader-left-head" ><ellipse cx="9" cy="10" rx="6.5" ry="8" fill="#efb58e" /><path d="M2 10 Q0 -1 10 0 Q19 1 16 9 L11 5 L5 7 Z" fill="#131b2b" /><g id="night-reader-left-eyes" data-part="night-reader-left-eyes" inkscape:groupmode="layer" inkscape:label="night-reader-left-eyes" ><ellipse cx="7" cy="10" rx="0.6" ry="0.8" fill="#131b2b" /><ellipse cx="12" cy="10" rx="0.6" ry="0.8" fill="#131b2b" /></g><g id="night-reader-left-mouth" data-part="night-reader-left-mouth" inkscape:groupmode="layer" inkscape:label="night-reader-left-mouth" ><path d="M8 14 Q10 15 12 14" fill="none" stroke="#131b2b" stroke-width="0.7" stroke-linecap="round" stroke-linejoin="round" /></g><g id="night-reader-left-brows" data-part="night-reader-left-brows" inkscape:groupmode="layer" inkscape:label="night-reader-left-brows" ><path d="M6 8 H8 M11 8 H13" fill="none" stroke="#131b2b" stroke-width="0.6" stroke-linecap="round" stroke-linejoin="round" /></g></g></g></g><g transform="translate(502 252) scale(1)"><g id="night-reader-right" data-part="night-reader-right" inkscape:groupmode="layer" inkscape:label="night-reader-right" ><g id="night-reader-right-shadow" data-part="night-reader-right-shadow" inkscape:groupmode="layer" inkscape:label="night-reader-right-shadow" ><ellipse cx="9" cy="91" rx="23" ry="4" fill="#8f9ab0" opacity=".12"/></g><g id="night-reader-right-leg-left" data-part="night-reader-right-leg-left" inkscape:groupmode="layer" inkscape:label="night-reader-right-leg-left" ><path d="M4 51 L0 82 L-7 86" fill="none" stroke="#8f9ab0" stroke-width="7" stroke-linecap="round" stroke-linejoin="round" /></g><g id="night-reader-right-leg-right" data-part="night-reader-right-leg-right" inkscape:groupmode="layer" inkscape:label="night-reader-right-leg-right" ><path d="M14 51 L21 82 L28 86" fill="none" stroke="#27334d" stroke-width="7" stroke-linecap="round" stroke-linejoin="round" /></g><g id="night-reader-right-torso" data-part="night-reader-right-torso" inkscape:groupmode="layer" inkscape:label="night-reader-right-torso" ><path d="M0 20 Q9 16 18 23 L20 54 H-3 Z" fill="#34d399" /></g><g id="night-reader-right-arm-left" data-part="night-reader-right-arm-left" inkscape:groupmode="layer" inkscape:label="night-reader-right-arm-left" ><path d="M1 28 L-11 45 L-4 51" fill="none" stroke="#34d399" stroke-width="7" stroke-linecap="round" stroke-linejoin="round" /></g><g id="night-reader-right-arm-right" data-part="night-reader-right-arm-right" inkscape:groupmode="layer" inkscape:label="night-reader-right-arm-right" ><path d="M13 30 L24 38 L29 26" fill="none" stroke="#34d399" stroke-width="7" stroke-linecap="round" stroke-linejoin="round" /><rect x="26" y="18" width="9" height="15" rx="2" fill="#131b2b" /><rect x="28" y="21" width="5" height="8" rx="1" fill="#4ea1ff" /></g><g id="night-reader-right-head" data-part="night-reader-right-head" inkscape:groupmode="layer" inkscape:label="night-reader-right-head" ><ellipse cx="9" cy="10" rx="6.5" ry="8" fill="#b98461" /><path d="M2 10 Q0 -1 10 0 Q19 1 16 9 L11 5 L5 7 Z" fill="#131b2b" /><g id="night-reader-right-eyes" data-part="night-reader-right-eyes" inkscape:groupmode="layer" inkscape:label="night-reader-right-eyes" ><ellipse cx="7" cy="10" rx="0.6" ry="0.8" fill="#131b2b" /><ellipse cx="12" cy="10" rx="0.6" ry="0.8" fill="#131b2b" /></g><g id="night-reader-right-mouth" data-part="night-reader-right-mouth" inkscape:groupmode="layer" inkscape:label="night-reader-right-mouth" ><path d="M8 14 Q10 15 12 14" fill="none" stroke="#131b2b" stroke-width="0.7" stroke-linecap="round" stroke-linejoin="round" /></g><g id="night-reader-right-brows" data-part="night-reader-right-brows" inkscape:groupmode="layer" inkscape:label="night-reader-right-brows" ><path d="M6 8 H8 M11 8 H13" fill="none" stroke="#131b2b" stroke-width="0.6" stroke-linecap="round" stroke-linejoin="round" /></g></g></g></g></g></svg>
