<svg xmlns="http://www.w3.org/2000/svg" xmlns:inkscape="http://www.inkscape.org/namespaces/inkscape" width="100" height="180" viewBox="0 0 100 180" role="img" aria-labelledby="server-rack-under-load-title"><title id="server-rack-under-load-title">Server rack: under load</title><g id="server-rack-under-load" data-part="server-rack-under-load" inkscape:groupmode="layer" inkscape:label="server-rack-under-load" ><g id="ground-shadow" data-part="ground-shadow" inkscape:groupmode="layer" inkscape:label="ground-shadow" ><ellipse cx="50" cy="166" rx="36" ry="4" fill="#8f9ab0" opacity=".12"/></g><g id="rack-body" data-part="rack-body" inkscape:groupmode="layer" inkscape:label="rack-body" ><rect x="15" y="8" width="70" height="151" rx="8" fill="#27334d" /><rect x="18" y="10" width="64" height="145" rx="6" fill="#04060d" /><path d="M21 14 H76" fill="none" stroke="#8f9ab0" stroke-width="1.5" stroke-linecap="round" stroke-linejoin="round" /><rect x="19" y="153" width="12" height="9" rx="2" fill="#27334d" /><rect x="69" y="153" width="12" height="9" rx="2" fill="#27334d" /></g><g id="rack-units" data-part="rack-units" inkscape:groupmode="layer" inkscape:label="rack-units" ><g id="unit-0" data-part="unit-0" inkscape:groupmode="layer" inkscape:label="unit-0" ><rect x="22" y="20" width="56" height="26" rx="4" fill="#131b2b" /><path d="M28 42 H72" fill="none" stroke="#27334d" stroke-width="1.4" stroke-linecap="round" stroke-linejoin="round" /><g id="lights-0" data-part="lights-0" inkscape:groupmode="layer" inkscape:label="lights-0" ><ellipse cx="31" cy="30" rx="3" ry="3" fill="#fbbf24" /><ellipse cx="41" cy="30" rx="2" ry="2" fill="#fbbf24" /></g><path d="M53 28 H69 M53 34 H65" fill="none" stroke="#8f9ab0" stroke-width="1.5" stroke-linecap="round" stroke-linejoin="round" /><ellipse cx="27" cy="41" rx="1" ry="1" fill="#8f9ab0" /><ellipse cx="73" cy="41" rx="1" ry="1" fill="#8f9ab0" /></g><g id="unit-1" data-part="unit-1" inkscape:groupmode="layer" inkscape:label="unit-1" ><rect x="22" y="52" width="56" height="26" rx="4" fill="#131b2b" /><path d="M28 74 H72" fill="none" stroke="#27334d" stroke-width="1.4" stroke-linecap="round" stroke-linejoin="round" /><g id="lights-1" data-part="lights-1" inkscape:groupmode="layer" inkscape:label="lights-1" ><ellipse cx="31" cy="62" rx="3" ry="3" fill="#fbbf24" /><ellipse cx="41" cy="62" rx="2" ry="2" fill="#fbbf24" /></g><path d="M53 60 H69 M53 66 H65" fill="none" stroke="#8f9ab0" stroke-width="1.5" stroke-linecap="round" stroke-linejoin="round" /><ellipse cx="27" cy="73" rx="1" ry="1" fill="#8f9ab0" /><ellipse cx="73" cy="73" rx="1" ry="1" fill="#8f9ab0" /></g><g id="unit-2" data-part="unit-2" inkscape:groupmode="layer" inkscape:label="unit-2" ><rect x="22" y="84" width="56" height="26" rx="4" fill="#131b2b" /><path d="M28 106 H72" fill="none" stroke="#27334d" stroke-width="1.4" stroke-linecap="round" stroke-linejoin="round" /><g id="lights-2" data-part="lights-2" inkscape:groupmode="layer" inkscape:label="lights-2" ><ellipse cx="31" cy="94" rx="3" ry="3" fill="#34d399" /><ellipse cx="41" cy="94" rx="2" ry="2" fill="#34d399" /></g><path d="M53 92 H69 M53 98 H65" fill="none" stroke="#8f9ab0" stroke-width="1.5" stroke-linecap="round" stroke-linejoin="round" /><ellipse cx="27" cy="105" rx="1" ry="1" fill="#8f9ab0" /><ellipse cx="73" cy="105" rx="1" ry="1" fill="#8f9ab0" /></g><g id="unit-3" data-part="unit-3" inkscape:groupmode="layer" inkscape:label="unit-3" ><rect x="22" y="116" width="56" height="26" rx="4" fill="#131b2b" /><path d="M28 138 H72" fill="none" stroke="#27334d" stroke-width="1.4" stroke-linecap="round" stroke-linejoin="round" /><g id="lights-3" data-part="lights-3" inkscape:groupmode="layer" inkscape:label="lights-3" ><ellipse cx="31" cy="126" rx="3" ry="3" fill="#34d399" /><ellipse cx="41" cy="126" rx="2" ry="2" fill="#34d399" /></g><path d="M53 124 H69 M53 130 H65" fill="none" stroke="#8f9ab0" stroke-width="1.5" stroke-linecap="round" stroke-linejoin="round" /><ellipse cx="27" cy="137" rx="1" ry="1" fill="#8f9ab0" /><ellipse cx="73" cy="137" rx="1" ry="1" fill="#8f9ab0" /></g></g></g></svg>
