<svg xmlns="http://www.w3.org/2000/svg" xmlns:inkscape="http://www.inkscape.org/namespaces/inkscape" width="260" height="350" viewBox="0 0 260 350" role="img" aria-labelledby="title"><title id="title">Maya: wave</title><metadata>Original character vector artwork for Packets in Motion. User-directed character; native editable paths. No fonts, filters, gradients, external images or background rectangle. Lighting: upper left. Layer groups expose animation pivots in data-pivot attributes.</metadata><g id="maya-wave-shadow" data-part="shadow" inkscape:groupmode="layer" inkscape:label="shadow" ><ellipse cx="130" cy="329" rx="49" ry="5" fill="#27334d" opacity=".18"/></g><g id="maya-wave-figure" data-part="figure" inkscape:groupmode="layer" inkscape:label="figure" transform=""><g id="maya-wave-leg-left" data-part="leg-left" inkscape:groupmode="layer" inkscape:label="leg-left" data-pivot="117 182"><path d="M117,182 L114,244 L111,303" fill="none" stroke="#43527a" stroke-width="23" stroke-linecap="round" stroke-linejoin="round"/><path d="M123 182 L120 244 L117 302" fill="none" stroke="#2f3b5c" stroke-width="7" stroke-linecap="round" stroke-linejoin="round"/><path d="M111,303 L111 312" fill="none" stroke="#efb58e" stroke-width="12" stroke-linecap="round" stroke-linejoin="round"/><path d="M102 308 Q111 313 120 308 L124 317 Q120 320 115 324 L99 324 Q96 319 102 308" fill="#1c2640" stroke="#56668c" stroke-width="1.5"/><path d="M100 323 L115 323" fill="none" stroke="#e7ecf5" stroke-width="2.2" stroke-linecap="round" stroke-linejoin="round"/></g><g id="maya-wave-leg-right" data-part="leg-right" inkscape:groupmode="layer" inkscape:label="leg-right" data-pivot="143 182"><path d="M143,182 L149,243 L153,303" fill="none" stroke="#43527a" stroke-width="23" stroke-linecap="round" stroke-linejoin="round"/><path d="M149 182 L155 243 L159 302" fill="none" stroke="#2f3b5c" stroke-width="7" stroke-linecap="round" stroke-linejoin="round"/><path d="M153,303 L153 312" fill="none" stroke="#efb58e" stroke-width="12" stroke-linecap="round" stroke-linejoin="round"/><path d="M144 308 Q153 313 162 308 L166 317 Q176 320 173 324 L141 324 Q138 319 144 308" fill="#1c2640" stroke="#56668c" stroke-width="1.5"/><path d="M142 323 L171 323" fill="none" stroke="#e7ecf5" stroke-width="2.2" stroke-linecap="round" stroke-linejoin="round"/></g><g id="maya-wave-torso" data-part="torso" inkscape:groupmode="layer" inkscape:label="torso" data-pivot="130 148"><path d="M104 107 Q107 99 121 99 L139 99 Q153 99 157 111 L157 151 L165 185 L139 191 L130 174 L124 192 L95 185 L103 150 Z" fill="#a78bfa" /><path d="M143 103 Q155 110 153 143 L165 185 L148 189 L139 171 Z" fill="#8c70d0" /><path d="M121 85 L139 85 L139 101 L130 113 L121 101 Z" fill="#efb58e" /><path d="M124 88 Q132 96 139 89 L139 100 Q130 101 124 95 Z" fill="#d79470" /><ellipse cx="146" cy="116" rx="3.5" ry="3.5" fill="#e8cc8c" /><path d="M108 160 L103 178" fill="none" stroke="#8c70d0" stroke-width="2" stroke-linecap="round" stroke-linejoin="round"/></g><g id="maya-wave-head" data-part="head" inkscape:groupmode="layer" inkscape:label="head" data-pivot="130 91"><g id="maya-wave-hair-back" data-part="hair-back" inkscape:groupmode="layer" inkscape:label="hair-back" ><path d="M105 31 C81 47 92 69 80 99 C65 124 80 180 104 169 L110 89 Q130 101 150 89 L156 169 C186 163 173 108 168 81 C166 47 154 18 129 24 C120 21 112 25 105 31" fill="#2b2152" /><path d="M98 54 Q99 88 88 119 M161 75 Q157 123 166 146" fill="none" stroke="#211936" stroke-width="5" stroke-linecap="round" stroke-linejoin="round"/></g><g id="maya-wave-face" data-part="face" inkscape:groupmode="layer" inkscape:label="face" ><path d="M107 45 C108 29 150 29 153 45 L153 69 C151 88 138 96 130 96 C119 94 107 84 107 69 Z" fill="#efb58e" /><path d="M145 48 Q155 75 137 89 Q128 94 119 87 Q134 101 147 85 Q157 73 153 48 Z" fill="#d79470" /><ellipse cx="105" cy="67" rx="4.4" ry="7" fill="#efb58e" /><ellipse cx="155" cy="67" rx="4.4" ry="7" fill="#efb58e" /><path d="M130 66 L128 72 Q131 74 134 71" fill="none" stroke="#d79470" stroke-width="1.6" stroke-linecap="round" stroke-linejoin="round"/></g><g id="maya-wave-eyes" data-part="eyes" inkscape:groupmode="layer" inkscape:label="eyes" ><g><path d="M113 62 Q118 56 123 62 Q118 67 113 62" fill="#e7ecf5" /><ellipse cx="118" cy="62" rx="2.8" ry="3.7" fill="#27334d" /><ellipse cx="119" cy="60.5" rx="0.8" ry="0.9" fill="#e7ecf5" /><path d="M113 62 Q118 56 123 62" fill="none" stroke="#27334d" stroke-width="1.3" stroke-linecap="round" stroke-linejoin="round"/></g><g><path d="M137 62 Q142 56 147 62 Q142 67 137 62" fill="#e7ecf5" /><ellipse cx="142" cy="62" rx="2.8" ry="3.7" fill="#27334d" /><ellipse cx="143" cy="60.5" rx="0.8" ry="0.9" fill="#e7ecf5" /><path d="M137 62 Q142 56 147 62" fill="none" stroke="#27334d" stroke-width="1.3" stroke-linecap="round" stroke-linejoin="round"/></g></g><g id="maya-wave-brows" data-part="brows" inkscape:groupmode="layer" inkscape:label="brows" ><path d="M112 53 Q118 50 124 53 M136 53 Q142 50 148 53" fill="none" stroke="#2b2152" stroke-width="2.2" stroke-linecap="round" stroke-linejoin="round"/></g><g id="maya-wave-mouth" data-part="mouth" inkscape:groupmode="layer" inkscape:label="mouth" ><g transform="translate(130 80)"><path d="M-7 -1 Q0 3 7 -1 Q4 7 0 7 Q-5 7 -7 -1" fill="#713c45" /><path d="M-5 0 Q0 3 5 0 L4 2 Q0 4 -4 2" fill="#e7ecf5" /></g></g><g id="maya-wave-hair-front" data-part="hair-front" inkscape:groupmode="layer" inkscape:label="hair-front" ><path d="M99 58 C97 36 111 22 129 26 C151 22 163 40 158 62 C153 55 147 44 142 39 C131 37 129 51 113 57 L105 68 Z" fill="#2b2152" /><path d="M106 41 Q115 27 129 30 M136 28 Q151 29 157 48" fill="none" stroke="#393062" stroke-width="2" stroke-linecap="round" stroke-linejoin="round"/></g></g><g id="maya-wave-arm-left" data-part="arm-left" inkscape:groupmode="layer" inkscape:label="arm-left" data-pivot="104 112"><path d="M104,112 L79,83 L72,49" fill="none" stroke="#efb58e" stroke-width="12" stroke-linecap="round" stroke-linejoin="round"/><path d="M82 83 L75 49" fill="none" stroke="#d79470" stroke-width="3" stroke-linecap="round" stroke-linejoin="round"/><path d="M104,112 L85.71769058205504,90.79252107518386" fill="none" stroke="#a78bfa" stroke-width="21" stroke-linecap="round" stroke-linejoin="round"/><path d="M109 114 L89.71769058205504 90.79252107518386" fill="none" stroke="#8c70d0" stroke-width="6" stroke-linecap="round" stroke-linejoin="round"/><g transform="translate(72 49)"><path d="M-5 4 L-8 -5 Q-9 -9 -6 -8 L-3 -3 L-5 -17 Q-5 -21 -2 -19 L1 -8 L1 -23 Q2 -26 4 -23 L5 -8 L8 -20 Q10 -23 12 -20 L10 -5 L14 -13 Q17 -15 17 -11 L12 4 Q7 11 -1 10 Z" fill="#efb58e" /><path d="M-1 2 Q5 -2 10 2" fill="none" stroke="#d79470" stroke-width="1.4" stroke-linecap="round" stroke-linejoin="round"/></g></g><g id="maya-wave-arm-right" data-part="arm-right" inkscape:groupmode="layer" inkscape:label="arm-right" data-pivot="156 112"><path d="M156,112 L171,151 L172,187" fill="none" stroke="#efb58e" stroke-width="12" stroke-linecap="round" stroke-linejoin="round"/><path d="M174 151 L175 187" fill="none" stroke="#d79470" stroke-width="3" stroke-linecap="round" stroke-linejoin="round"/><path d="M156,112 L166.05141422064833,138.13367697368568" fill="none" stroke="#a78bfa" stroke-width="21" stroke-linecap="round" stroke-linejoin="round"/><path d="M161 114 L170.05141422064833 138.13367697368568" fill="none" stroke="#8c70d0" stroke-width="6" stroke-linecap="round" stroke-linejoin="round"/><g transform="translate(172 187) scale(-1 1)"><path d="M-5 -5 L5 -5 L7 6 Q6 10 4 8 L3 3 L3 13 Q1 17 -1 12 L-2 5 L-3 13 Q-6 15 -6 10 L-7 3 Z" fill="#efb58e" /><path d="M-2 0 L-1 6" fill="none" stroke="#d79470" stroke-width="1.3" stroke-linecap="round" stroke-linejoin="round"/></g></g></g></svg>
